<svg xmlns="http://www.w3.org/2000/svg" version="1.1" xmlns:xlink="http://www.w3.org/1999/xlink" width="512" height="512" x="0" y="0" viewBox="0 0 512 512" style="enable-background:new 0 0 512 512" xml:space="preserve" class=""><g><path d="M256 393.3h-40.308l17.942 11.835c5.763 3.802 7.353 11.555 3.552 17.317a12.489 12.489 0 0 1-10.446 5.618c-2.363 0-4.751-.668-6.871-2.066l-52.711-34.77a12.499 12.499 0 0 1 0-20.87l52.711-34.769c5.764-3.802 13.516-2.21 17.317 3.552 3.801 5.763 2.211 13.517-3.552 17.317L215.693 368.3H256c61.922 0 112.3-50.378 112.3-112.3a112.54 112.54 0 0 0-4.242-30.691c-1.882-6.643 1.976-13.553 8.618-15.435 6.646-1.882 13.553 1.977 15.435 8.618A137.563 137.563 0 0 1 393.3 256c0 75.707-61.592 137.3-137.3 137.3zM431.009 80.991C384.262 34.244 322.11 8.5 256 8.5S127.738 34.244 80.991 80.991C34.245 127.737 8.5 189.891 8.5 256s25.745 128.263 72.491 175.009C127.738 477.756 189.89 503.5 256 503.5c48.086 0 94.714-13.807 134.845-39.927 5.786-3.767 7.423-11.51 3.657-17.296-3.766-5.785-11.508-7.423-17.295-3.657C341.145 466.093 299.232 478.5 256 478.5c-122.687 0-222.5-99.813-222.5-222.5S133.313 33.5 256 33.5 478.5 133.313 478.5 256c0 43.232-12.407 85.146-35.879 121.207-3.766 5.786-2.129 13.529 3.657 17.296 5.785 3.766 13.529 2.129 17.295-3.658C489.693 350.715 503.5 304.086 503.5 256c0-66.109-25.745-128.263-72.491-175.009zM413.572 413.09l-.481.481c-4.895 4.868-4.917 12.782-.049 17.678a12.464 12.464 0 0 0 8.864 3.686c3.187 0 6.375-1.212 8.814-3.637l.579-.579c4.868-4.895 4.846-12.81-.049-17.678-4.895-4.867-12.809-4.847-17.678.049zM256 143.7h40.307l-17.941 11.834c-5.763 3.801-7.353 11.555-3.552 17.317a12.489 12.489 0 0 0 10.446 5.618c2.362 0 4.751-.668 6.871-2.066l52.711-34.769a12.499 12.499 0 0 0 0-20.87l-52.711-34.77c-5.764-3.802-13.516-2.211-17.317 3.552s-2.211 13.516 3.552 17.317l17.942 11.835H256c-75.708 0-137.3 61.593-137.3 137.3 0 12.739 1.746 25.358 5.189 37.508 1.56 5.503 6.57 9.095 12.02 9.095 1.128 0 2.276-.153 3.415-.477 6.642-1.883 10.5-8.793 8.618-15.435a112.53 112.53 0 0 1-4.242-30.691c0-61.92 50.378-112.298 112.3-112.298z" fill="#000000" opacity="1" data-original="#000000"></path></g></svg>