<svg xmlns="http://www.w3.org/2000/svg" version="1.1" xmlns:xlink="http://www.w3.org/1999/xlink" width="512" height="512" x="0" y="0" viewBox="0 0 32 32" style="enable-background:new 0 0 512 512" xml:space="preserve" class=""><g><g data-name="check 1"><path d="M13 22a1 1 0 0 1-.71-1.71l10-10a1 1 0 0 1 1.42 0 1 1 0 0 1 0 1.41l-10 10a1 1 0 0 1-.71.3z" fill="#000000" opacity="1" data-original="#000000" class=""></path><path d="M13 22a1 1 0 0 1-.7-.3l-4-4a1 1 0 0 1 0-1.41 1 1 0 0 1 1.42 0l4 4A1 1 0 0 1 13 22z" fill="#000000" opacity="1" data-original="#000000" class=""></path><path d="M16 31a15 15 0 1 1 15-15 15 15 0 0 1-15 15zm0-28a13 13 0 1 0 13 13A13 13 0 0 0 16 3z" fill="#000000" opacity="1" data-original="#000000" class=""></path></g></g></svg>